<?xml version="1.0" encoding="utf-8"?>
<!-- Generator: Adobe Illustrator 28.0.0, SVG Export Plug-In . SVG Version: 6.00 Build 0)  -->
<svg version="1.1" id="Capa_1" xmlns="http://www.w3.org/2000/svg" xmlns:xlink="http://www.w3.org/1999/xlink" x="0px" y="0px"
	 viewBox="0 0 48 48" style="enable-background:new 0 0 48 48;" xml:space="preserve">
<style type="text/css">
	.st0{fill-rule:evenodd;clip-rule:evenodd;fill:#283066;}
	.st1{fill:#FFFFFF;}
	.st2{fill-rule:evenodd;clip-rule:evenodd;fill:#FFFFFF;}
</style>
<g>
	<ellipse transform="matrix(0.9453 -0.3262 0.3262 0.9453 -6.5155 9.1405)" class="st0" cx="24" cy="24" rx="21.37" ry="21.37"/>
	<path class="st1" d="M24,44.64C12.62,44.64,3.36,35.38,3.36,24C3.36,12.62,12.62,3.36,24,3.36S44.64,12.62,44.64,24
		C44.64,35.38,35.38,44.64,24,44.64z M24,3.5C12.69,3.5,3.5,12.69,3.5,24s9.2,20.5,20.5,20.5c11.31,0,20.5-9.2,20.5-20.5
		S35.31,3.5,24,3.5z"/>
	<path class="st1" d="M5.04,19.55l0.2-0.67l0.76,0.22l0.21-0.73l-0.76-0.22l0.2-0.67l2.17,0.64l-0.2,0.67l-0.88-0.26l-0.21,0.73
		l0.88,0.26l-0.2,0.67L5.04,19.55z"/>
	<path class="st1" d="M5.94,16.78l0.27-0.64l2.08,0.88l-0.27,0.64L5.94,16.78z"/>
	<path class="st1" d="M6.52,15.43l0.5-0.91c0.1-0.18,0.2-0.31,0.31-0.39c0.11-0.08,0.23-0.14,0.36-0.16
		c0.13-0.02,0.26-0.01,0.4,0.02c0.14,0.03,0.27,0.09,0.41,0.16c0.21,0.12,0.36,0.23,0.45,0.34c0.09,0.11,0.15,0.23,0.18,0.36
		s0.03,0.25,0,0.36c-0.04,0.15-0.09,0.28-0.15,0.39l-0.5,0.91L6.52,15.43z M7.3,15.07l1.08,0.6l0.08-0.15
		c0.07-0.13,0.11-0.23,0.11-0.3c0-0.07-0.02-0.14-0.08-0.21c-0.05-0.07-0.16-0.15-0.32-0.24c-0.21-0.12-0.37-0.16-0.49-0.14
		c-0.12,0.03-0.22,0.12-0.3,0.27L7.3,15.07z"/>
	<path class="st1" d="M9.72,14.38l-1.8-1.37l0.7-0.92c0.13-0.17,0.24-0.29,0.34-0.36c0.1-0.07,0.21-0.1,0.33-0.09
		c0.12,0.01,0.24,0.05,0.35,0.14c0.1,0.08,0.17,0.16,0.21,0.26c0.04,0.1,0.05,0.2,0.04,0.31c-0.01,0.07-0.03,0.15-0.08,0.25
		C9.9,12.55,9.96,12.51,10,12.5c0.03-0.01,0.08-0.01,0.16-0.02c0.08,0,0.13,0,0.17,0.01l0.72,0.13l-0.48,0.63l-0.77-0.12
		c-0.1-0.02-0.17-0.02-0.21,0c-0.06,0.02-0.11,0.05-0.15,0.1l-0.04,0.05l0.73,0.55L9.72,14.38z M9.07,13.01l0.18-0.23
		c0.02-0.03,0.05-0.08,0.09-0.17c0.02-0.04,0.02-0.09,0.01-0.13c-0.01-0.05-0.04-0.08-0.08-0.11c-0.06-0.04-0.12-0.06-0.18-0.05
		c-0.06,0.01-0.13,0.07-0.2,0.17l-0.19,0.24L9.07,13.01z"/>
	<path class="st1" d="M9.93,9.73l0.38-0.38l-0.03,0.68l-0.21,0.21L9.93,9.73z M11.96,11.21l-0.56,0.56l0.18,0.34l-0.51,0.5
		l-0.98-2.2l0.54-0.53l2.19,1.01L12.3,11.4L11.96,11.21z M11.52,10.96l-0.75-0.4l0.39,0.75L11.52,10.96z"/>
	<path class="st1" d="M12.87,8.05l0.56-0.41l0.79,1.09c0.08,0.11,0.14,0.22,0.17,0.34c0.04,0.12,0.04,0.24,0.02,0.37
		c-0.02,0.12-0.06,0.23-0.12,0.32c-0.08,0.12-0.2,0.24-0.35,0.35c-0.09,0.06-0.19,0.13-0.3,0.19c-0.11,0.06-0.22,0.1-0.32,0.12
		c-0.1,0.01-0.2,0.01-0.31-0.02c-0.11-0.03-0.2-0.07-0.27-0.12c-0.12-0.09-0.21-0.18-0.28-0.27l-0.79-1.09l0.56-0.41l0.81,1.11
		c0.07,0.1,0.16,0.16,0.25,0.17c0.1,0.02,0.19-0.01,0.29-0.08c0.1-0.07,0.15-0.15,0.17-0.25c0.02-0.1-0.01-0.19-0.09-0.29
		L12.87,8.05z"/>
	<path class="st1" d="M14.12,7.23l0.61-0.33l0.8,1.5l0.96-0.51l0.26,0.49l-1.57,0.84L14.12,7.23z"/>
	<path class="st1" d="M16.23,6.17l0.65-0.27l0.86,2.08l-0.65,0.27L16.23,6.17z"/>
	<path class="st1" d="M19.39,6.47l0.64,0.01c0.01,0.18-0.01,0.33-0.07,0.47c-0.05,0.14-0.13,0.25-0.24,0.34
		c-0.11,0.09-0.26,0.17-0.45,0.22c-0.24,0.07-0.44,0.09-0.61,0.07c-0.17-0.02-0.33-0.11-0.49-0.25c-0.16-0.14-0.28-0.35-0.36-0.61
		c-0.1-0.36-0.09-0.66,0.04-0.91c0.13-0.25,0.38-0.42,0.72-0.53c0.27-0.08,0.5-0.09,0.69-0.02c0.19,0.06,0.35,0.2,0.5,0.41
		l-0.55,0.3c-0.04-0.06-0.08-0.1-0.11-0.13C19.06,5.8,19,5.78,18.94,5.77c-0.06-0.01-0.13-0.01-0.19,0.01
		c-0.15,0.04-0.25,0.14-0.3,0.28c-0.03,0.11-0.02,0.26,0.03,0.45c0.07,0.24,0.15,0.39,0.25,0.46s0.21,0.08,0.35,0.04
		c0.13-0.04,0.21-0.1,0.26-0.19C19.38,6.74,19.4,6.62,19.39,6.47z"/>
	<path class="st1" d="M21.91,6.56l-0.78,0.11l-0.06,0.38l-0.71,0.1l0.52-2.35l0.75-0.11l1.16,2.12l-0.72,0.1L21.91,6.56z M21.7,6.1
		l-0.36-0.77l-0.13,0.84L21.7,6.1z"/>
	<path class="st1" d="M24.01,4.52l0.77,0.05l0.41,0.79l0.5-0.73l0.77,0.05L25.5,5.93l-0.06,0.94l-0.7-0.04l0.06-0.94L24.01,4.52z"/>
	<path class="st1" d="M28.22,4.98l0.63,0.18l0.48,1.43l0.34-1.2l0.63,0.18l-0.61,2.17l-0.63-0.18l-0.48-1.42l-0.33,1.19l-0.63-0.18
		L28.22,4.98z"/>
	<path class="st1" d="M31.05,5.85l1.71,0.76l-0.2,0.44l-1.07-0.47L31.35,6.9l0.99,0.44l-0.19,0.42l-0.99-0.44l-0.18,0.41l1.1,0.49
		l-0.21,0.47l-1.74-0.77L31.05,5.85z"/>
	<path class="st1" d="M34.67,7.74l0.59,0.37l-0.72,1.14c-0.07,0.11-0.16,0.21-0.25,0.29c-0.1,0.08-0.21,0.13-0.33,0.16
		c-0.12,0.03-0.23,0.03-0.34,0.01c-0.14-0.03-0.29-0.09-0.45-0.2c-0.09-0.06-0.19-0.13-0.29-0.21c-0.1-0.08-0.18-0.17-0.23-0.25
		c-0.05-0.09-0.08-0.18-0.1-0.29c-0.02-0.11-0.01-0.21,0.01-0.3c0.04-0.14,0.09-0.26,0.15-0.36l0.72-1.14l0.59,0.37l-0.73,1.17
		c-0.07,0.1-0.09,0.2-0.07,0.3c0.02,0.09,0.08,0.17,0.19,0.24c0.1,0.06,0.2,0.09,0.29,0.06c0.09-0.02,0.17-0.09,0.24-0.19
		L34.67,7.74z M34.64,7.02"/>
	<polygon class="st1" points="39.43,11.13 39.82,11.5 39.14,11.49 38.93,11.28 	"/>
	<path class="st1" d="M35.94,8.6l0.69,0.61l-0.65,1.26l1.17-0.8l0.69,0.61l-1.5,1.69l-0.43-0.38l1.14-1.29l-1.47,1l-0.39-0.34
		l0.81-1.58l-1.14,1.29l-0.43-0.38L35.94,8.6z"/>
	<path class="st1" d="M37.82,13.16l-0.5-0.61l-0.36,0.15l-0.45-0.55l2.28-0.78l0.48,0.59l-1.21,2.09l-0.46-0.56L37.82,13.16z
		 M38.11,12.74l0.47-0.71l-0.78,0.32L38.11,12.74z"/>
	<path class="st1" d="M39.89,12.74l1.13,1.79l-0.47,0.3l-0.38-0.6l-1.44,0.91l-0.37-0.59l1.44-0.91l-0.38-0.6L39.89,12.74z"/>
	<path class="st1" d="M41.28,15.06l0.31,0.63l-2.02,1l-0.31-0.63L41.28,15.06z"/>
	<path class="st1" d="M41.18,18.24l0.04,0.64c-0.18,0.02-0.33,0.01-0.47-0.03c-0.14-0.04-0.26-0.12-0.36-0.22
		c-0.1-0.1-0.18-0.25-0.25-0.44c-0.08-0.23-0.12-0.43-0.11-0.6c0.01-0.17,0.08-0.34,0.21-0.51c0.13-0.17,0.33-0.3,0.59-0.4
		c0.35-0.13,0.65-0.13,0.91-0.02c0.26,0.12,0.45,0.35,0.57,0.69c0.1,0.27,0.12,0.5,0.07,0.69c-0.05,0.19-0.18,0.37-0.37,0.52
		l-0.34-0.53c0.06-0.04,0.1-0.08,0.12-0.12c0.04-0.06,0.06-0.11,0.07-0.18c0.01-0.06,0-0.13-0.02-0.19
		c-0.05-0.15-0.16-0.24-0.3-0.28c-0.11-0.03-0.26-0.01-0.45,0.06c-0.23,0.09-0.38,0.18-0.44,0.28c-0.06,0.1-0.07,0.22-0.02,0.35
		c0.05,0.13,0.12,0.21,0.21,0.25C40.92,18.25,41.04,18.26,41.18,18.24z"/>
	<path class="st1" d="M41.27,20.76l-0.16-0.77l-0.39-0.03l-0.15-0.7l2.38,0.37l0.16,0.74l-2.03,1.29l-0.15-0.71L41.27,20.76z
		 M41.71,20.52l0.74-0.41l-0.84-0.07L41.71,20.52z"/>
	<circle class="st2" cx="24" cy="24" r="16.53"/>
	<path class="st0" d="M11.47,19.3c1.93-5.17,7-8.67,12.53-8.67c7.36,0,13.37,6,13.37,13.37c0,7.36-6,13.37-13.37,13.37
		c-7.36,0-13.37-6-13.37-13.37C10.63,22.43,10.95,20.76,11.47,19.3z"/>
	<g>
		<path class="st1" d="M13.75,38.12l0.79,0.53c0.16,0.1,0.27,0.21,0.34,0.31c0.07,0.11,0.11,0.22,0.12,0.34
			c0.01,0.12-0.01,0.24-0.05,0.37c-0.04,0.12-0.1,0.24-0.18,0.36c-0.12,0.18-0.24,0.31-0.35,0.39c-0.11,0.07-0.22,0.12-0.34,0.14
			c-0.12,0.02-0.23,0.01-0.33-0.02c-0.14-0.05-0.25-0.1-0.35-0.16l-0.79-0.53L13.75,38.12z M14.03,38.87l-0.63,0.94l0.13,0.09
			c0.11,0.07,0.2,0.11,0.26,0.12c0.06,0.01,0.13-0.01,0.2-0.06c0.07-0.04,0.15-0.13,0.24-0.27c0.12-0.18,0.17-0.33,0.16-0.43
			c-0.01-0.11-0.09-0.21-0.23-0.3L14.03,38.87z"/>
		<path class="st1" d="M15.9,39.48l1.55,0.74l-0.19,0.4l-0.97-0.46l-0.14,0.3l0.9,0.43l-0.18,0.38l-0.9-0.43l-0.18,0.37l1,0.47
			l-0.2,0.42l-1.58-0.75L15.9,39.48z"/>
		<path class="st1" d="M17.54,41.74l0.59,0.15c-0.02,0.1-0.01,0.18,0.01,0.24c0.04,0.1,0.11,0.17,0.23,0.2
			c0.09,0.03,0.16,0.03,0.22,0c0.06-0.03,0.1-0.07,0.12-0.12c0.02-0.05,0.01-0.1-0.02-0.16c-0.03-0.05-0.12-0.13-0.28-0.21
			c-0.25-0.14-0.41-0.28-0.5-0.42c-0.08-0.14-0.1-0.28-0.05-0.44c0.03-0.1,0.09-0.19,0.18-0.26c0.09-0.07,0.2-0.11,0.33-0.13
			c0.13-0.01,0.3,0.01,0.51,0.08c0.25,0.08,0.43,0.19,0.53,0.32c0.1,0.14,0.13,0.31,0.09,0.52l-0.59-0.15
			c0.01-0.09,0-0.17-0.03-0.22c-0.04-0.06-0.1-0.1-0.18-0.12C18.64,41,18.58,41,18.53,41.02c-0.05,0.02-0.07,0.05-0.09,0.09
			c-0.01,0.03,0,0.06,0.02,0.1c0.02,0.04,0.08,0.08,0.18,0.14c0.25,0.14,0.42,0.26,0.52,0.36c0.1,0.1,0.16,0.19,0.18,0.3
			c0.02,0.1,0.02,0.21-0.01,0.32c-0.04,0.13-0.11,0.23-0.22,0.32c-0.1,0.08-0.23,0.13-0.37,0.15c-0.14,0.02-0.31-0.01-0.5-0.07
			c-0.34-0.11-0.55-0.24-0.64-0.41C17.52,42.13,17.5,41.95,17.54,41.74z"/>
		<path class="st1" d="M20.37,41.13l0.94,0.15c0.18,0.03,0.33,0.08,0.44,0.15c0.11,0.07,0.19,0.16,0.25,0.26
			c0.06,0.11,0.09,0.22,0.11,0.35c0.01,0.13,0.01,0.26-0.01,0.4c-0.04,0.22-0.09,0.38-0.16,0.5c-0.07,0.11-0.15,0.2-0.26,0.27
			c-0.1,0.07-0.21,0.11-0.31,0.12c-0.14,0.01-0.27,0.01-0.39-0.01l-0.94-0.15L20.37,41.13z M20.92,41.7l-0.18,1.12l0.15,0.03
			c0.13,0.02,0.23,0.02,0.29,0c0.06-0.02,0.11-0.06,0.16-0.13c0.04-0.07,0.08-0.18,0.11-0.35c0.04-0.22,0.02-0.37-0.03-0.46
			c-0.06-0.09-0.17-0.15-0.33-0.18L20.92,41.7z"/>
		<path class="st1" d="M22.88,41.49l1.71,0.04l-0.01,0.44l-1.07-0.02l-0.01,0.33l0.99,0.02l-0.01,0.42l-0.99-0.02l-0.01,0.41
			l1.1,0.02l-0.01,0.47l-1.74-0.04L22.88,41.49z"/>
		<path class="st1" d="M27.52,41.15l0.36,2.07l-0.57,0.1l-0.23-1.36c-0.08,0.09-0.16,0.16-0.24,0.22c-0.08,0.06-0.18,0.12-0.3,0.18
			l-0.08-0.46c0.18-0.1,0.32-0.2,0.41-0.3c0.09-0.11,0.16-0.23,0.19-0.37L27.52,41.15z"/>
		<path class="st1" d="M28.9,42.52l0.53-0.24c0.04,0.07,0.08,0.12,0.12,0.14c0.04,0.02,0.09,0.02,0.14,0.01
			c0.09-0.03,0.14-0.09,0.17-0.2c0.02-0.08,0-0.22-0.05-0.44c-0.04,0.09-0.1,0.16-0.16,0.21c-0.06,0.05-0.13,0.09-0.23,0.12
			c-0.18,0.05-0.35,0.04-0.51-0.05c-0.16-0.09-0.27-0.23-0.33-0.42c-0.04-0.13-0.05-0.26-0.02-0.39c0.03-0.13,0.09-0.23,0.18-0.32
			c0.09-0.09,0.22-0.16,0.38-0.21c0.2-0.06,0.37-0.08,0.51-0.04c0.14,0.03,0.27,0.11,0.39,0.24c0.12,0.13,0.21,0.31,0.29,0.55
			c0.11,0.36,0.11,0.64,0.02,0.85c-0.1,0.21-0.28,0.36-0.55,0.44c-0.16,0.05-0.29,0.07-0.39,0.06c-0.1-0.01-0.19-0.04-0.28-0.09
			C29.04,42.69,28.96,42.62,28.9,42.52z M29.64,41.33c-0.03-0.11-0.09-0.18-0.16-0.23c-0.07-0.04-0.15-0.05-0.23-0.03
			c-0.07,0.02-0.12,0.07-0.16,0.14c-0.03,0.07-0.03,0.16,0,0.27c0.03,0.11,0.08,0.19,0.15,0.23s0.14,0.05,0.21,0.03
			c0.08-0.02,0.13-0.07,0.17-0.14C29.67,41.52,29.67,41.43,29.64,41.33z"/>
		<path class="st1" d="M31.2,41.05c-0.1-0.01-0.18-0.03-0.25-0.07c-0.08-0.05-0.15-0.12-0.19-0.22c-0.07-0.16-0.06-0.32,0.05-0.49
			c0.08-0.13,0.22-0.24,0.41-0.32c0.25-0.11,0.46-0.15,0.62-0.11c0.16,0.04,0.28,0.13,0.34,0.28c0.04,0.08,0.05,0.17,0.04,0.27
			c-0.01,0.07-0.04,0.15-0.1,0.24c0.12,0,0.23,0.03,0.32,0.09c0.09,0.06,0.15,0.14,0.2,0.23c0.04,0.09,0.06,0.19,0.05,0.29
			c-0.01,0.1-0.03,0.19-0.07,0.26c-0.04,0.07-0.11,0.14-0.19,0.2c-0.08,0.06-0.18,0.12-0.29,0.17c-0.2,0.09-0.36,0.14-0.49,0.14
			c-0.13,0-0.24-0.03-0.33-0.1c-0.1-0.07-0.17-0.16-0.22-0.27c-0.05-0.11-0.07-0.22-0.05-0.32C31.06,41.24,31.11,41.14,31.2,41.05z
			 M31.27,40.57c0.03,0.07,0.07,0.11,0.13,0.13c0.06,0.02,0.12,0.02,0.19-0.01c0.06-0.03,0.1-0.07,0.12-0.13
			c0.02-0.06,0.02-0.12-0.01-0.18c-0.03-0.07-0.07-0.11-0.13-0.13c-0.06-0.02-0.12-0.02-0.18,0.01c-0.06,0.03-0.11,0.07-0.13,0.13
			C31.24,40.45,31.24,40.51,31.27,40.57z M31.61,41.4c0.04,0.08,0.09,0.14,0.17,0.17c0.07,0.03,0.14,0.03,0.21,0
			c0.06-0.03,0.11-0.08,0.13-0.16c0.03-0.08,0.02-0.16-0.02-0.24c-0.04-0.08-0.09-0.14-0.17-0.17c-0.07-0.03-0.14-0.03-0.21,0
			c-0.07,0.03-0.11,0.08-0.14,0.15C31.56,41.23,31.57,41.31,31.61,41.4z"/>
		<path class="st1" d="M34.2,40.3l-0.89,0.55l-0.25-0.4l0.24-1.61l0.43-0.26l0.67,1.08l0.22-0.14l0.23,0.38l-0.22,0.14l0.2,0.33
			l-0.43,0.26L34.2,40.3z M33.97,39.92l-0.34-0.55l-0.13,0.84L33.97,39.92z"/>
	</g>
	<path class="st1" d="M31.79,21.92v-4.44c0-0.59-0.47-1.08-1.04-1.08h-4.68c-0.57,0-1.04,0.48-1.04,1.08v2.87h-0.01v1.46
		c0,0.54-0.43,0.97-0.97,0.97h-0.17c-0.54,0-0.97-0.43-0.97-0.97v-1.46v-1.95v-0.97c0-0.56-0.43-1.01-0.97-1.01h-4.76
		c-0.54,0-0.97,0.45-0.97,1.01v13.14c0,0.56,0.43,1.01,0.97,1.01h4.76c0.54,0,0.97-0.45,0.97-1.01v-0.51V28.3v-1.66
		c0-0.54,0.44-0.97,0.97-0.97h0.17c0.54,0,0.97,0.44,0.97,0.97v1.66h0.01v2.22c0,0.59,0.47,1.08,1.04,1.08h4.68
		c0.57,0,1.04-0.48,1.04-1.08v-4.44c0-0.59-0.47-1.08-1.04-1.08h-2.34V25h-1.37c-0.54,0-0.97-0.41-0.97-0.93v-0.16
		c0-0.51,0.43-0.93,0.97-0.93h3.41c0.02,0,0.04,0,0.06,0.01h0.24C31.32,22.99,31.79,22.51,31.79,21.92z"/>
</g>
</svg>
