<?xml version="1.0" standalone="no"?>
<!DOCTYPE svg PUBLIC "-//W3C//DTD SVG 20010904//EN"
 "http://www.w3.org/TR/2001/REC-SVG-20010904/DTD/svg10.dtd">
<svg version="1.0" xmlns="http://www.w3.org/2000/svg"
 width="900.000000pt" height="900.000000pt" viewBox="0 0 900.000000 900.000000"
 preserveAspectRatio="xMidYMid meet">
<metadata>
Created by potrace 1.10, written by Peter Selinger 2001-2011
</metadata>
<g transform="translate(0.000000,900.000000) scale(0.100000,-0.100000)"
fill="#000000" stroke="none">
<path d="M4240 8986 c0 -16 -70 -26 -196 -26 -56 0 -108 -6 -134 -15 -23 -8
-69 -15 -102 -15 -32 0 -75 -7 -95 -15 -19 -8 -52 -15 -73 -15 -21 0 -57 -7
-80 -15 -23 -8 -57 -15 -74 -15 -17 -1 -42 -7 -56 -15 -14 -8 -41 -15 -60 -15
-19 0 -46 -7 -60 -15 -14 -8 -39 -14 -55 -15 -17 0 -39 -6 -50 -14 -11 -7 -33
-16 -50 -18 -36 -7 -89 -25 -128 -44 -16 -8 -35 -14 -42 -14 -8 0 -29 -6 -47
-14 -18 -8 -53 -22 -78 -31 -25 -9 -61 -24 -80 -32 -19 -8 -48 -21 -65 -27
-38 -16 -225 -105 -245 -116 -8 -5 -42 -23 -75 -39 -33 -17 -82 -44 -110 -61
-27 -16 -59 -34 -70 -40 -11 -6 -33 -19 -50 -30 -16 -11 -37 -23 -45 -27 -53
-25 -389 -266 -460 -329 -14 -12 -63 -55 -110 -94 -109 -93 -357 -341 -450
-450 -39 -47 -82 -96 -94 -110 -13 -14 -57 -72 -99 -130 -43 -58 -83 -112 -90
-120 -6 -8 -16 -22 -22 -31 -5 -10 -32 -51 -60 -91 -27 -40 -52 -77 -54 -83
-2 -5 -16 -28 -30 -50 -48 -75 -50 -79 -66 -117 -3 -7 -14 -26 -25 -43 -10
-16 -49 -91 -85 -165 -37 -74 -73 -147 -81 -162 -8 -14 -14 -33 -14 -41 0 -8
-7 -20 -15 -27 -8 -7 -15 -21 -15 -30 0 -10 -7 -32 -15 -49 -8 -17 -22 -45
-30 -62 -8 -17 -15 -38 -15 -47 0 -9 -7 -26 -15 -36 -8 -11 -15 -30 -15 -42 0
-12 -6 -35 -14 -51 -19 -39 -37 -92 -44 -128 -2 -16 -11 -39 -18 -50 -8 -11
-14 -33 -14 -50 -1 -16 -7 -41 -15 -55 -8 -14 -15 -41 -15 -60 0 -19 -7 -46
-15 -60 -8 -14 -14 -41 -15 -61 0 -20 -7 -53 -15 -72 -8 -20 -15 -56 -15 -79
0 -24 -7 -61 -15 -83 -8 -22 -14 -64 -15 -94 0 -29 -6 -79 -14 -110 -39 -156
-39 -935 0 -1094 8 -32 14 -82 14 -112 0 -29 7 -72 15 -95 8 -23 15 -60 15
-82 0 -21 7 -55 15 -75 8 -19 15 -52 15 -72 0 -20 7 -49 15 -65 8 -15 15 -42
15 -60 1 -17 7 -42 15 -56 8 -14 14 -39 15 -56 0 -16 7 -39 15 -50 8 -10 15
-33 15 -50 0 -16 7 -39 15 -50 8 -10 15 -31 15 -45 0 -14 7 -34 15 -45 8 -10
15 -28 15 -40 0 -11 7 -29 15 -40 8 -10 15 -31 15 -45 0 -15 7 -32 15 -39 8
-7 15 -21 15 -32 0 -11 6 -32 13 -46 8 -15 22 -45 32 -67 9 -22 21 -47 26 -55
5 -8 12 -22 15 -30 10 -27 36 -85 45 -100 5 -8 12 -22 15 -30 3 -8 10 -22 15
-30 5 -8 12 -22 15 -30 3 -8 10 -22 15 -30 5 -8 20 -37 34 -65 15 -27 35 -63
45 -80 11 -16 25 -41 31 -55 5 -14 21 -39 35 -57 13 -17 24 -34 24 -36 0 -3
16 -29 35 -59 51 -78 56 -85 100 -147 23 -31 51 -73 63 -93 13 -20 26 -38 30
-40 4 -2 30 -32 57 -68 27 -36 59 -76 71 -90 12 -14 55 -63 95 -110 95 -109
280 -294 389 -389 47 -40 96 -83 110 -95 14 -12 54 -44 90 -71 36 -27 66 -53
68 -57 2 -4 20 -17 40 -30 20 -12 62 -40 93 -63 31 -22 65 -46 75 -53 61 -40
122 -79 135 -85 8 -4 28 -16 44 -27 17 -11 39 -24 50 -30 11 -6 34 -19 50 -30
17 -11 36 -22 42 -25 7 -3 19 -7 25 -10 7 -3 27 -14 43 -25 17 -11 37 -22 45
-26 8 -3 22 -10 30 -15 8 -5 22 -12 30 -15 8 -3 22 -10 30 -15 8 -5 22 -12 30
-15 29 -11 85 -37 100 -46 8 -4 22 -11 30 -14 26 -10 84 -36 112 -51 14 -7 34
-13 45 -13 10 0 27 -7 37 -15 11 -8 29 -15 41 -15 12 0 26 -5 32 -11 6 -6 26
-14 44 -19 47 -11 99 -30 132 -46 16 -8 41 -14 55 -14 15 0 36 -7 46 -15 11
-8 34 -15 50 -15 17 -1 42 -7 56 -15 14 -8 41 -15 60 -15 19 0 46 -7 60 -15
14 -8 41 -14 61 -15 20 0 53 -7 72 -15 20 -8 56 -15 79 -15 24 0 61 -7 83 -15
22 -8 64 -14 94 -15 29 0 79 -6 110 -14 154 -38 927 -38 1084 0 32 8 83 14
112 14 30 0 66 5 82 11 15 6 55 15 88 19 57 7 92 14 195 40 25 6 66 15 93 19
26 4 53 13 59 19 7 7 26 12 43 12 16 1 41 7 55 15 14 8 37 14 51 15 14 0 34 7
45 15 10 8 30 15 44 15 14 0 34 6 45 14 11 7 31 16 45 19 41 9 129 42 193 73
16 8 37 14 47 14 9 0 23 7 30 15 7 8 19 15 27 15 13 0 48 15 93 41 8 5 22 12
30 15 15 6 204 100 241 120 11 7 26 17 32 23 6 6 17 11 23 11 7 0 32 13 56 29
24 16 62 39 86 51 23 12 42 26 42 30 0 4 8 10 18 14 21 7 45 22 93 59 20 15
40 27 45 27 4 0 14 7 23 15 9 8 66 51 126 96 61 46 115 87 121 93 6 6 32 29
59 51 26 22 69 57 94 79 75 63 333 325 410 416 40 47 83 96 95 110 62 70 326
439 326 456 0 2 12 23 27 47 36 55 42 66 77 129 16 29 44 80 63 113 18 33 36
67 39 75 4 8 26 58 51 110 25 52 51 111 60 130 8 19 22 47 29 62 8 14 14 34
14 45 0 10 7 27 15 37 8 11 15 29 15 40 0 12 7 30 15 40 8 11 15 29 15 40 0
12 7 30 15 40 8 11 15 31 15 45 0 14 7 35 15 45 8 11 15 31 15 45 1 14 7 37
15 51 8 14 15 39 15 55 0 17 7 39 15 49 8 11 15 36 15 55 1 20 7 47 15 61 8
14 14 41 15 61 0 20 7 53 15 72 8 20 15 54 15 75 0 22 7 59 15 82 8 23 15 66
15 94 0 28 7 73 15 100 8 27 15 86 15 131 0 124 10 205 26 205 11 0 14 44 14
236 0 207 -2 238 -16 249 -13 9 -17 38 -21 151 -3 80 -11 158 -19 183 -8 25
-14 70 -14 102 0 31 -7 76 -15 99 -8 23 -15 60 -15 82 0 21 -7 55 -15 75 -8
19 -15 49 -15 65 0 16 -7 45 -15 65 -8 19 -15 47 -15 62 -1 14 -7 37 -15 51
-8 14 -14 39 -15 56 0 16 -7 39 -15 50 -8 10 -15 33 -15 49 0 17 -7 39 -15 49
-8 11 -15 31 -15 45 0 14 -7 35 -15 45 -8 11 -15 29 -15 41 0 12 -7 30 -15 41
-8 10 -15 28 -15 40 0 11 -7 29 -15 40 -8 10 -15 29 -15 40 0 12 -7 27 -15 34
-8 7 -15 23 -15 35 0 12 -7 28 -15 35 -8 7 -15 19 -15 27 0 8 -6 27 -14 41 -7
15 -37 77 -67 137 -29 61 -56 112 -61 113 -4 2 -8 12 -8 22 0 10 -5 22 -11 25
-5 4 -15 17 -20 28 -5 12 -18 36 -29 52 -11 17 -26 44 -33 60 -8 17 -31 54
-51 84 -20 29 -36 55 -36 58 0 3 -13 22 -30 43 -16 21 -30 41 -30 44 0 7 -80
121 -103 147 -8 9 -25 32 -38 50 -13 19 -46 61 -74 94 -28 33 -68 83 -90 110
-54 69 -402 419 -476 480 -34 28 -95 78 -136 113 -41 34 -78 62 -82 62 -4 0
-20 13 -37 28 -25 25 -110 85 -162 117 -9 6 -33 22 -53 38 -20 15 -40 27 -44
27 -3 0 -21 11 -38 24 -29 21 -107 68 -162 96 -11 6 -33 19 -50 29 -52 34
-226 121 -241 121 -8 0 -14 4 -14 10 0 5 -12 13 -27 16 -16 4 -37 13 -48 20
-11 8 -27 14 -36 14 -9 0 -22 7 -29 15 -7 8 -23 15 -35 15 -12 0 -28 7 -35 15
-7 8 -22 15 -34 15 -11 0 -30 7 -40 15 -11 8 -29 15 -40 15 -12 0 -30 7 -40
15 -11 8 -29 15 -41 15 -12 0 -30 7 -41 15 -10 8 -31 15 -45 15 -14 0 -34 7
-45 15 -10 8 -32 15 -49 15 -16 0 -39 7 -49 15 -11 8 -34 15 -50 15 -17 1 -42
7 -56 15 -14 8 -37 14 -51 15 -15 0 -43 7 -62 15 -20 8 -49 15 -65 15 -16 0
-46 7 -65 15 -20 8 -54 15 -75 15 -22 0 -59 7 -82 15 -23 8 -66 15 -95 15 -28
0 -74 7 -101 15 -27 8 -85 15 -130 15 -124 0 -204 10 -204 26 0 11 -46 14
-250 14 -204 0 -250 -2 -250 -14z m561 -156 c30 -5 106 -14 169 -19 144 -12
299 -37 450 -73 25 -6 63 -14 85 -19 75 -16 150 -36 178 -47 16 -7 38 -12 51
-12 12 0 26 -4 31 -9 6 -6 28 -14 50 -20 43 -10 91 -26 142 -48 17 -7 36 -13
42 -13 6 0 25 -6 43 -14 18 -8 51 -22 73 -31 22 -9 54 -22 70 -30 17 -7 46
-20 65 -28 70 -31 306 -150 355 -178 28 -17 64 -37 80 -45 41 -21 60 -32 133
-82 35 -23 67 -42 72 -42 5 0 10 -4 12 -8 2 -4 35 -29 73 -54 39 -25 81 -56
95 -67 36 -30 42 -34 70 -52 14 -9 37 -27 51 -40 14 -13 57 -49 95 -79 89 -71
462 -444 534 -534 30 -38 66 -81 79 -95 13 -14 31 -37 40 -51 18 -28 22 -34
52 -70 11 -14 42 -56 67 -95 25 -38 50 -71 54 -73 4 -2 8 -8 8 -13 0 -5 20
-38 45 -75 25 -36 45 -69 45 -74 0 -5 6 -15 13 -22 7 -7 18 -24 24 -38 7 -14
26 -47 42 -75 16 -27 59 -111 96 -185 63 -128 77 -159 112 -240 8 -19 21 -48
29 -65 7 -16 16 -42 20 -58 3 -15 10 -30 15 -33 5 -3 9 -12 9 -21 0 -8 6 -29
13 -46 22 -51 38 -99 48 -142 6 -22 14 -44 20 -49 5 -6 9 -21 9 -35 0 -15 7
-39 15 -55 8 -15 15 -39 15 -52 0 -13 6 -41 14 -61 15 -41 31 -115 46 -204 5
-31 14 -68 20 -83 5 -15 10 -46 10 -70 0 -23 6 -66 14 -96 7 -30 16 -101 19
-156 3 -56 11 -131 17 -166 7 -40 10 -159 7 -323 -4 -265 -16 -437 -42 -580
-9 -44 -15 -96 -15 -115 0 -19 -7 -53 -15 -75 -8 -22 -14 -56 -15 -76 0 -20
-7 -53 -15 -72 -8 -20 -15 -48 -15 -63 0 -14 -7 -49 -16 -78 -9 -28 -22 -71
-29 -96 -30 -107 -49 -167 -62 -197 -7 -17 -13 -39 -13 -50 0 -10 -7 -27 -15
-37 -8 -11 -15 -28 -15 -37 0 -10 -6 -30 -14 -46 -8 -15 -22 -48 -31 -73 -41
-108 -143 -323 -210 -445 -19 -33 -40 -71 -47 -85 -8 -14 -33 -56 -57 -95 -23
-38 -47 -79 -54 -90 -7 -11 -24 -36 -39 -56 -16 -20 -28 -40 -28 -43 0 -6
-207 -286 -219 -296 -4 -3 -36 -41 -71 -84 -81 -99 -349 -369 -455 -460 -44
-38 -91 -78 -105 -90 -56 -48 -241 -184 -330 -243 -52 -34 -99 -66 -105 -71
-5 -4 -17 -11 -25 -15 -8 -4 -28 -16 -45 -27 -16 -11 -39 -24 -50 -30 -11 -6
-40 -22 -65 -36 -50 -29 -328 -169 -375 -188 -59 -25 -101 -43 -135 -59 -19
-9 -47 -19 -63 -23 -15 -3 -30 -10 -33 -15 -3 -5 -15 -9 -28 -9 -12 0 -31 -7
-42 -15 -10 -8 -27 -15 -37 -15 -11 0 -33 -6 -50 -13 -52 -22 -133 -47 -153
-47 -11 0 -32 -7 -48 -15 -15 -8 -39 -15 -52 -15 -13 0 -41 -6 -61 -14 -44
-16 -123 -33 -208 -46 -33 -5 -73 -13 -88 -19 -16 -6 -47 -11 -70 -11 -23 0
-69 -7 -102 -15 -33 -8 -87 -15 -120 -15 -33 0 -121 -7 -195 -15 -157 -17
-371 -19 -485 -5 -44 5 -138 14 -210 20 -144 11 -256 25 -325 41 -25 6 -70 15
-100 19 -85 13 -196 40 -310 76 -25 8 -54 14 -65 14 -12 0 -25 4 -30 9 -6 6
-28 14 -50 20 -55 13 -125 37 -307 107 -179 69 -416 188 -628 316 -63 38 -124
75 -135 81 -11 7 -22 14 -25 17 -6 6 -57 42 -140 99 -36 24 -67 47 -70 50 -3
4 -36 31 -75 61 -256 199 -550 493 -730 730 -27 36 -52 67 -56 70 -3 3 -26 34
-50 70 -57 83 -93 134 -99 140 -3 3 -10 14 -17 25 -6 11 -43 72 -81 135 -129
213 -248 450 -317 630 -9 25 -22 59 -29 75 -20 46 -37 97 -46 134 -5 18 -13
38 -19 44 -6 6 -11 22 -11 37 0 14 -7 38 -15 54 -8 15 -15 38 -15 50 0 11 -7
34 -15 50 -8 15 -15 39 -15 52 0 13 -6 41 -14 61 -16 44 -33 123 -46 208 -5
33 -13 73 -19 88 -6 16 -11 47 -11 70 0 23 -7 69 -15 102 -8 33 -14 87 -15
120 0 33 -7 119 -15 190 -17 148 -19 408 -5 505 5 36 12 119 16 185 3 66 10
135 16 153 6 19 14 68 18 110 10 89 27 183 41 229 6 18 14 54 19 80 12 62 36
160 48 198 5 17 18 57 27 90 10 33 24 74 32 92 7 17 13 38 13 46 0 8 7 28 15
43 8 16 15 37 15 46 0 9 4 19 9 22 5 3 12 18 15 33 4 16 13 42 21 58 7 17 21
48 30 70 9 22 23 54 30 70 27 61 164 331 189 375 14 25 30 54 36 65 6 11 19
34 30 50 11 17 23 36 26 44 26 52 260 380 330 461 12 14 52 61 90 105 65 77
348 363 409 415 109 91 155 128 280 221 172 128 363 253 445 292 8 4 42 23 75
41 117 66 335 169 445 211 25 9 58 23 73 31 16 8 36 14 46 14 9 0 26 7 37 15
10 8 28 15 39 15 11 0 33 7 49 15 15 8 36 15 45 15 9 0 29 7 45 15 15 8 36 15
45 15 9 0 36 6 61 14 116 37 223 62 319 77 36 6 73 15 82 20 10 5 37 9 61 9
24 0 70 7 101 15 32 8 86 15 120 16 34 0 100 6 147 13 103 16 583 20 661 6z"/>
<path d="M4249 8796 c-3 -4 -73 -11 -156 -16 -82 -5 -162 -14 -177 -20 -15 -5
-48 -10 -73 -10 -24 0 -72 -6 -106 -14 -64 -15 -133 -30 -227 -47 -30 -5 -59
-14 -64 -20 -6 -5 -21 -9 -35 -9 -23 0 -63 -11 -156 -42 -16 -5 -48 -14 -70
-19 -22 -6 -44 -14 -50 -20 -5 -5 -18 -9 -30 -9 -11 0 -33 -7 -49 -15 -15 -8
-33 -15 -38 -15 -6 0 -24 -6 -41 -14 -18 -7 -52 -21 -77 -31 -65 -24 -97 -38
-170 -72 -75 -34 -268 -130 -290 -143 -8 -5 -67 -39 -130 -76 -170 -101 -422
-271 -455 -308 -5 -7 -39 -34 -75 -61 -63 -48 -89 -70 -213 -185 -109 -100
-209 -202 -327 -335 -20 -22 -60 -71 -90 -110 -30 -38 -60 -74 -66 -80 -6 -5
-26 -32 -45 -60 -19 -27 -38 -55 -44 -62 -24 -29 -33 -42 -83 -116 -28 -43
-52 -82 -52 -87 0 -6 -4 -10 -9 -10 -5 0 -13 -10 -17 -22 -4 -13 -10 -25 -13
-28 -4 -3 -24 -34 -45 -70 -20 -36 -41 -72 -46 -80 -14 -23 -171 -341 -188
-380 -9 -19 -21 -48 -28 -65 -7 -16 -20 -46 -28 -67 -9 -20 -16 -42 -16 -50 0
-7 -7 -22 -15 -32 -8 -11 -15 -27 -15 -37 0 -9 -7 -30 -15 -45 -8 -16 -15 -36
-15 -45 0 -9 -7 -30 -15 -45 -8 -16 -15 -38 -15 -49 -1 -11 -7 -31 -15 -45 -8
-14 -14 -37 -15 -51 0 -15 -7 -40 -15 -55 -8 -16 -15 -42 -15 -57 0 -16 -5
-38 -11 -49 -6 -11 -15 -44 -20 -72 -9 -57 -25 -137 -41 -211 -6 -27 -15 -81
-19 -120 -4 -38 -13 -113 -18 -165 -21 -190 -34 -450 -27 -547 4 -54 11 -170
16 -258 5 -88 14 -176 20 -195 5 -19 10 -55 10 -80 0 -25 5 -63 11 -85 6 -22
14 -67 19 -100 5 -33 13 -73 19 -88 6 -16 11 -39 11 -52 0 -22 14 -76 45 -176
8 -26 15 -54 15 -64 0 -9 6 -31 14 -48 8 -18 16 -43 19 -57 6 -33 26 -88 43
-123 8 -16 14 -35 14 -44 0 -15 19 -65 46 -116 8 -16 14 -33 14 -39 0 -26 155
-350 226 -473 19 -33 39 -69 44 -80 6 -11 18 -32 28 -46 9 -15 31 -50 47 -78
17 -28 33 -51 38 -51 4 0 7 -5 7 -10 0 -12 41 -73 53 -78 4 -2 7 -8 7 -13 0
-10 162 -229 214 -290 17 -19 56 -64 86 -99 105 -122 320 -333 490 -481 53
-46 300 -229 309 -229 5 0 11 -3 13 -7 5 -12 66 -53 78 -53 5 0 10 -3 10 -7 0
-5 23 -21 51 -38 28 -16 63 -38 78 -47 14 -10 35 -22 46 -28 11 -5 47 -25 80
-44 67 -39 230 -121 315 -159 30 -14 76 -34 102 -46 26 -11 51 -21 57 -21 5 0
22 -6 38 -14 52 -26 104 -46 118 -46 7 0 26 -6 42 -14 15 -8 55 -22 88 -32 33
-9 74 -23 92 -31 17 -7 40 -13 51 -13 11 0 36 -7 55 -15 20 -8 49 -15 65 -15
15 0 32 -4 37 -9 6 -6 35 -14 65 -20 90 -15 171 -31 237 -47 34 -8 81 -14 105
-14 24 0 59 -5 78 -10 43 -13 383 -35 545 -35 159 0 491 21 535 35 19 5 55 10
79 10 24 0 73 6 110 14 105 23 172 36 227 45 28 5 61 14 72 20 11 6 33 11 47
11 15 0 41 6 58 14 30 12 66 23 162 47 22 6 44 14 50 20 5 5 18 9 30 9 11 0
32 6 47 14 15 8 40 17 57 21 17 4 33 11 36 16 4 5 13 9 22 9 8 0 31 7 51 16
21 8 51 21 67 28 69 29 107 47 245 115 150 74 227 114 246 128 25 19 51 34 77
44 15 6 27 14 27 19 0 4 8 11 18 14 9 3 26 12 37 19 69 43 115 74 151 101 23
17 52 38 64 46 33 22 114 83 120 90 3 3 25 21 50 40 199 152 498 449 650 645
30 39 57 72 61 75 15 11 79 101 79 110 0 6 4 10 8 10 13 0 262 384 262 404 0
4 5 12 11 19 10 12 47 80 89 167 12 25 26 52 31 60 5 8 12 22 15 30 4 8 20 44
36 80 43 93 54 119 73 170 10 25 21 54 26 65 16 37 41 110 46 135 3 14 9 30
14 35 4 6 12 29 18 50 28 109 34 131 43 149 5 10 13 39 18 65 9 48 22 102 46
187 8 28 14 63 14 77 0 14 7 52 15 84 8 31 15 76 15 99 0 24 5 55 10 70 44
115 44 1033 0 1148 -5 15 -10 48 -10 74 0 26 -5 65 -11 87 -6 22 -15 68 -19
102 -5 35 -14 72 -20 82 -5 11 -10 32 -10 48 0 15 -6 48 -14 73 -8 25 -21 68
-30 96 -9 29 -16 60 -16 70 0 11 -7 32 -15 48 -8 15 -15 36 -15 45 0 9 -7 29
-15 45 -8 15 -15 36 -15 45 0 9 -7 29 -15 45 -8 15 -15 36 -15 45 0 10 -7 26
-15 37 -8 10 -15 27 -15 37 0 11 -6 31 -13 45 -8 15 -21 43 -29 62 -33 78 -48
111 -117 250 -39 80 -85 168 -101 195 -16 28 -34 59 -40 70 -6 11 -19 34 -30
50 -11 17 -23 37 -27 45 -24 51 -321 463 -352 490 -3 3 -37 41 -75 85 -89 102
-288 301 -391 391 -44 38 -86 75 -94 83 -54 50 -430 320 -481 344 -8 4 -28 16
-45 27 -16 11 -39 24 -50 30 -11 6 -42 24 -70 40 -27 16 -115 62 -195 101
-138 68 -176 86 -245 115 -16 7 -46 20 -67 28 -20 9 -42 16 -50 16 -7 0 -22 7
-32 15 -11 8 -29 15 -41 15 -12 0 -25 4 -31 9 -5 4 -43 18 -84 31 -41 13 -89
29 -107 36 -17 8 -42 14 -55 14 -12 1 -34 7 -48 15 -14 8 -37 14 -51 15 -15 0
-43 7 -62 15 -20 8 -50 15 -67 15 -17 0 -40 5 -51 10 -10 6 -47 15 -82 20 -82
12 -178 28 -252 42 -33 6 -114 15 -180 20 -150 11 -638 22 -646 14z m402 -217
c9 -4 31 -38 50 -74 19 -37 37 -69 41 -71 3 -2 27 27 53 66 l47 70 79 0 c64 0
79 -3 79 -15 0 -9 -41 -70 -91 -137 l-92 -121 -9 -91 c-5 -50 -10 -97 -13
-103 -9 -26 -141 -12 -149 16 -3 9 -2 50 3 91 7 64 6 81 -10 115 -19 41 -55
106 -89 160 -31 48 -50 96 -44 107 7 11 119 1 145 -13z m-643 -41 c5 -7 24
-40 42 -73 46 -85 83 -153 112 -205 51 -91 68 -125 68 -137 0 -20 -36 -33 -94
-33 -50 0 -56 2 -68 28 -13 26 -16 27 -87 26 -77 -2 -91 -9 -91 -51 0 -26 -16
-36 -88 -53 -70 -16 -77 -9 -64 66 10 55 15 78 44 194 6 25 14 65 19 90 4 25
14 68 21 95 13 47 16 50 54 56 69 11 121 9 132 -3z m1480 -69 c25 -10 55 -72
82 -174 14 -52 40 -106 49 -100 5 2 11 22 14 42 8 57 35 146 49 160 12 11 33
9 116 -13 17 -5 15 -56 -4 -118 -18 -56 -33 -110 -58 -201 -48 -172 -41 -163
-113 -140 -68 22 -83 32 -83 52 0 8 -6 29 -13 46 -20 48 -38 98 -47 135 -5 19
-11 36 -14 40 -9 9 -34 -30 -41 -63 -3 -16 -13 -54 -22 -82 -19 -60 -27 -63
-104 -36 -52 19 -54 23 -40 69 14 47 42 145 58 204 8 30 21 75 29 100 8 25 14
52 14 61 0 39 53 46 128 18z m-1969 -39 c36 -18 81 -63 81 -80 0 -11 -65 -48
-95 -56 -17 -4 -33 1 -51 15 -38 30 -61 26 -101 -14 -32 -32 -35 -39 -29 -74
9 -60 42 -128 70 -146 45 -30 99 -2 121 62 l13 38 64 0 63 0 -2 -46 c-2 -63
-32 -110 -88 -142 -59 -33 -108 -47 -162 -47 -44 0 -63 6 -108 35 -103 66
-156 235 -105 335 55 109 229 172 329 120z m2526 -145 c60 -28 141 -63 195
-85 81 -34 95 -50 81 -93 -15 -43 -36 -52 -76 -33 -16 7 -48 22 -70 31 -22 10
-48 22 -57 26 -28 14 -55 11 -62 -7 -12 -31 -12 -31 115 -88 72 -33 80 -42 62
-84 -18 -45 -34 -48 -95 -19 -54 25 -128 57 -133 57 -4 0 -35 -61 -35 -67 0
-2 35 -20 78 -39 104 -48 142 -68 142 -74 0 -3 -7 -23 -14 -45 -17 -48 -39
-54 -99 -26 -23 11 -69 32 -102 46 -33 15 -77 35 -98 46 -21 10 -44 19 -51 19
-7 0 -21 9 -31 20 -17 19 -17 22 15 87 18 38 39 82 46 98 25 58 64 145 90 200
28 60 31 61 99 30z m-3043 -2 c10 -9 18 -21 18 -28 0 -6 16 -49 36 -96 19 -46
40 -95 46 -109 29 -70 41 -97 54 -123 24 -48 18 -70 -24 -89 -21 -10 -52 -21
-70 -24 -28 -6 -33 -3 -42 22 -6 16 -15 40 -21 54 -6 14 -17 39 -23 55 -7 17
-20 46 -28 65 -9 19 -24 55 -34 80 -9 25 -26 64 -36 88 -25 56 -17 79 32 92
22 6 42 15 45 20 9 15 26 12 47 -7z m-449 -210 c8 -10 32 -49 52 -88 107 -206
115 -215 153 -183 9 8 38 24 64 37 26 12 50 26 53 32 13 20 44 7 64 -27 33
-56 28 -75 -27 -102 -26 -13 -74 -38 -107 -57 -33 -18 -82 -45 -110 -59 -61
-30 -64 -28 -125 89 -50 96 -98 185 -129 241 -30 53 -25 72 24 98 22 11 42 24
43 28 6 14 28 9 45 -9z m4005 -41 c39 -30 40 -49 3 -104 -61 -90 -91 -139 -91
-147 0 -5 -7 -14 -15 -21 -20 -17 -19 -79 2 -102 10 -11 30 -18 54 -18 42 0
65 21 121 116 18 31 41 68 51 83 9 14 20 34 23 44 8 23 50 33 67 16 7 -8 30
-23 50 -34 20 -11 37 -23 37 -28 0 -5 -24 -46 -52 -93 -29 -46 -58 -94 -65
-106 -43 -80 -132 -148 -192 -148 -66 0 -202 82 -240 144 -15 24 -21 50 -21
92 0 53 5 68 53 147 92 155 107 178 127 194 17 13 34 6 88 -35z m-1638 -81
c52 -6 115 -17 140 -23 25 -5 70 -14 100 -18 81 -13 144 -28 315 -76 33 -9 75
-23 93 -30 18 -8 39 -14 47 -14 8 0 29 -6 47 -14 18 -8 53 -22 78 -31 25 -10
60 -24 77 -32 18 -7 47 -20 65 -27 98 -42 376 -185 407 -209 14 -12 48 -32 71
-43 8 -4 17 -10 20 -13 9 -10 69 -51 75 -51 3 0 11 -5 18 -10 7 -6 53 -40 102
-77 255 -189 519 -453 708 -708 37 -49 70 -94 75 -100 4 -5 19 -28 32 -50 13
-22 27 -42 30 -45 4 -3 10 -12 13 -20 4 -8 16 -28 27 -45 11 -16 24 -39 30
-50 6 -11 20 -36 31 -55 12 -19 51 -93 86 -165 61 -122 77 -157 108 -230 6
-16 19 -46 27 -65 9 -19 19 -50 22 -67 4 -18 12 -35 17 -38 5 -4 9 -15 9 -25
0 -11 6 -34 14 -52 21 -51 67 -219 89 -328 69 -332 80 -451 75 -790 -4 -267
-15 -410 -39 -522 -6 -26 -14 -71 -18 -100 -16 -105 -63 -283 -117 -438 -14
-41 -28 -84 -31 -95 -2 -11 -11 -33 -18 -50 -7 -16 -23 -55 -35 -85 -59 -146
-140 -307 -238 -470 -52 -85 -189 -288 -209 -308 -7 -7 -34 -41 -60 -74 -234
-305 -638 -647 -1008 -854 -32 -18 -286 -144 -325 -160 -19 -9 -48 -22 -63
-30 -16 -8 -33 -14 -39 -14 -5 0 -24 -6 -41 -14 -18 -8 -41 -16 -52 -19 -11
-3 -51 -16 -90 -30 -236 -80 -464 -129 -760 -162 -254 -28 -638 -16 -870 27
-33 6 -82 14 -110 18 -27 4 -72 13 -100 20 -27 6 -77 19 -110 27 -97 24 -168
44 -203 59 -18 8 -39 14 -47 14 -8 0 -29 6 -47 14 -18 8 -51 21 -73 29 -162
61 -344 146 -475 221 -25 14 -54 30 -65 36 -112 60 -368 244 -515 372 -124
107 -335 328 -443 463 -94 118 -234 320 -277 400 -6 11 -22 40 -36 65 -56 97
-111 210 -157 320 -27 63 -54 129 -61 145 -18 42 -36 95 -46 130 -4 17 -12 41
-17 55 -10 23 -17 48 -56 190 -14 52 -30 126 -57 265 -6 33 -16 103 -21 155
-5 52 -14 122 -19 155 -13 80 -12 491 1 580 5 39 14 111 19 160 5 50 14 115
20 145 35 178 54 258 86 361 8 26 14 53 14 62 0 8 7 28 15 43 8 16 15 39 15
51 0 12 4 24 9 28 5 3 13 20 17 38 3 17 13 48 22 67 8 19 21 49 27 65 7 17 20
46 28 65 19 43 145 299 157 320 5 8 31 51 57 95 64 108 140 219 237 344 104
135 136 171 286 321 138 138 182 179 285 260 39 30 76 60 82 66 12 12 136 98
171 119 9 6 44 28 77 49 33 22 78 49 100 61 22 12 56 32 75 43 76 45 262 133
365 173 33 13 64 27 70 31 5 4 18 8 28 8 10 0 31 6 45 14 15 7 54 21 87 31 33
9 75 23 93 31 18 8 41 14 51 14 9 0 37 6 62 14 85 26 305 68 464 89 136 18
692 17 835 -2z m-2563 -128 c117 -158 123 -170 123 -241 0 -53 -4 -66 -33
-103 -36 -48 -90 -89 -156 -119 -53 -24 -69 -25 -122 -3 -51 20 -95 61 -144
133 -21 30 -41 57 -44 60 -16 13 -71 102 -71 114 0 8 25 32 55 55 l54 41 38
-49 c21 -26 45 -58 53 -71 73 -110 106 -145 139 -148 43 -4 81 29 81 70 0 31
-25 72 -123 202 l-60 79 49 43 c27 24 56 43 65 44 10 0 50 -45 96 -107z m4729
-157 l69 -63 -30 -59 c-17 -32 -42 -81 -58 -107 -15 -27 -25 -52 -22 -57 3 -5
49 20 102 56 53 35 103 64 111 64 20 0 141 -102 141 -118 1 -16 -23 -48 -87
-117 -26 -28 -78 -86 -116 -130 -78 -90 -94 -105 -112 -105 -22 0 -74 51 -74
72 0 17 121 168 142 176 11 5 10 32 -1 32 -6 0 -12 -4 -15 -9 -3 -4 -45 -35
-93 -67 -49 -32 -89 -62 -91 -66 -8 -17 -30 -6 -67 32 l-38 39 51 103 c29 57
52 108 52 115 0 6 6 13 13 16 6 2 9 7 6 11 -6 6 -50 -36 -142 -138 -44 -50
-45 -50 -70 -33 -29 19 -67 57 -67 67 0 4 12 20 28 37 15 17 57 64 93 104 37
41 92 104 124 142 31 37 63 67 70 67 7 0 44 -29 81 -64z m-5476 -168 c-1 -101
-46 -136 -68 -52 -13 49 -13 50 21 88 36 42 47 34 47 -36z m127 -52 c15 -8 60
-29 98 -47 116 -54 187 -86 238 -110 27 -12 51 -28 54 -36 4 -9 -12 -33 -40
-61 l-47 -46 -42 11 c-42 11 -43 11 -89 -30 -58 -52 -63 -64 -44 -93 8 -13 15
-28 15 -33 0 -5 -28 -39 -62 -74 -35 -35 -82 -90 -106 -121 -36 -48 -47 -57
-65 -51 -12 3 -64 9 -114 12 -116 7 -121 -5 -30 -73 34 -26 66 -51 71 -55 5
-4 -6 -27 -24 -51 -42 -54 -61 -70 -77 -64 -7 3 -68 47 -134 98 -67 51 -141
106 -165 122 -70 49 -71 63 -8 142 30 37 54 70 54 73 0 12 88 103 116 122 42
27 84 24 133 -11 45 -33 61 -63 61 -116 l0 -34 58 0 c31 0 79 -7 106 -15 59
-18 74 -9 54 32 -8 15 -22 44 -30 63 -8 19 -24 55 -36 80 -11 25 -32 72 -47
105 -14 33 -32 74 -40 90 -33 70 -31 83 21 136 52 52 74 58 121 35z m6036
-271 c15 -13 27 -31 27 -40 0 -23 -110 -21 -141 3 -41 34 -18 52 71 60 8 1 27
-10 43 -23z m-121 -77 c50 -56 61 -95 33 -118 -8 -7 -15 -16 -15 -21 0 -5 -18
-39 -41 -75 -22 -37 -45 -77 -50 -88 -5 -12 -18 -34 -29 -51 -11 -16 -23 -37
-27 -45 -20 -44 -66 -110 -76 -109 -17 0 -87 95 -87 117 0 10 7 27 15 38 8 10
15 22 15 26 0 3 -20 31 -46 62 -43 53 -75 69 -89 46 -13 -21 -39 -9 -81 37
-24 26 -44 52 -44 58 0 17 22 35 44 35 12 0 34 7 50 15 15 8 35 15 43 15 8 0
29 6 46 13 41 18 94 36 132 47 17 5 55 18 85 29 30 11 60 20 65 20 6 1 31 -23
57 -51z m233 -305 c22 -36 47 -76 55 -88 8 -13 28 -45 44 -72 16 -26 39 -61
51 -78 42 -56 41 -70 -7 -103 -40 -27 -45 -28 -65 -15 -13 9 -23 20 -23 25 0
5 -10 22 -22 38 -21 29 -51 39 -62 21 -3 -5 -38 -28 -77 -52 -39 -24 -82 -52
-97 -61 -15 -9 -42 -25 -59 -34 -32 -16 -34 -16 -53 7 -10 13 -19 29 -20 35 0
6 -7 17 -15 24 -29 24 -18 54 30 80 25 14 45 28 45 31 0 4 8 10 18 13 9 3 26
12 37 19 11 7 44 28 73 46 61 38 65 57 26 115 -22 32 -24 42 -15 62 6 13 17
24 25 24 7 0 19 7 26 15 23 28 45 15 85 -52z m-6727 -194 c61 -15 148 -73 184
-125 52 -75 35 -166 -61 -324 -11 -19 -25 -45 -31 -57 -5 -13 -14 -23 -20 -23
-14 0 -100 42 -165 81 -27 16 -63 37 -80 45 -91 46 -149 81 -158 96 -12 18 -9
26 48 123 19 33 39 69 44 81 14 31 69 83 105 99 39 17 72 18 134 4z m7006
-292 c33 -67 31 -72 -46 -109 -29 -14 -118 -58 -197 -97 -79 -39 -147 -71
-151 -71 -9 0 -74 129 -68 135 15 15 406 204 418 202 8 -1 28 -28 44 -60z
m-7234 -228 c80 -33 157 -67 172 -75 14 -8 33 -14 40 -14 8 0 23 -9 32 -19 17
-19 17 -22 -9 -76 -14 -31 -32 -58 -40 -61 -11 -4 -193 67 -360 141 -16 8 -38
16 -49 20 -15 4 -17 12 -12 44 8 54 37 101 61 101 11 0 85 -27 165 -61z m7316
-50 c72 -44 118 -135 118 -235 0 -65 -2 -74 -33 -112 -18 -23 -38 -42 -45 -42
-7 0 -23 18 -36 40 -14 22 -28 40 -32 40 -14 0 -8 37 7 50 23 19 19 80 -7 107
-43 45 -174 19 -215 -43 -32 -49 7 -124 64 -124 37 0 53 -26 53 -86 l0 -54
-57 0 c-102 1 -168 69 -195 202 -16 76 -1 135 48 188 83 90 241 123 330 69z
m-7521 -186 c28 -8 70 -21 95 -29 100 -30 147 -44 190 -55 25 -6 51 -13 59
-16 17 -4 7 -97 -15 -131 -13 -19 -20 -22 -52 -16 -20 4 -51 13 -69 21 -55 23
-67 18 -87 -36 -25 -70 -19 -94 24 -102 19 -4 51 -13 70 -19 19 -7 41 -15 49
-17 9 -2 11 -11 6 -31 -3 -15 -9 -41 -12 -59 -3 -18 -11 -37 -19 -44 -15 -12
-60 -8 -109 9 -16 6 -57 18 -90 28 -173 50 -257 79 -262 90 -2 7 3 28 11 49 9
21 16 46 16 57 0 28 27 33 81 14 73 -27 88 -21 111 48 20 57 20 60 2 73 -10 7
-25 13 -33 13 -32 0 -101 33 -101 49 0 8 7 36 16 61 9 25 18 51 20 59 3 9 12
11 27 6 12 -4 45 -14 72 -22z m7447 -379 c37 -8 80 -14 95 -14 15 0 70 -8 120
-17 l93 -18 15 -52 c21 -70 20 -119 -2 -127 -10 -3 -52 -28 -93 -55 -41 -28
-106 -69 -143 -93 -38 -24 -80 -51 -95 -60 -58 -37 -59 -38 -76 -25 -17 12
-38 110 -29 134 3 7 13 15 24 18 33 11 39 37 22 96 -9 30 -17 60 -19 67 -2 6
-13 12 -24 12 -34 0 -60 19 -60 43 -1 12 -7 39 -14 59 -9 26 -10 40 -3 47 12
12 91 6 189 -15z m-5802 -3959 c7 -8 17 -15 22 -15 6 0 27 -13 48 -30 21 -16
42 -30 46 -30 13 0 76 -61 97 -92 23 -37 23 -123 -1 -170 -31 -59 -79 -119
-113 -140 -42 -25 -131 -26 -179 -1 -66 35 -178 113 -184 129 -3 8 -2 23 3 32
12 21 199 302 213 320 14 16 33 15 48 -3z m4221 -156 c24 -39 51 -82 60 -97
11 -19 25 -28 49 -30 56 -6 91 -69 53 -97 -16 -12 -16 -14 0 -38 23 -35 22
-39 -16 -64 -42 -29 -53 -29 -82 3 l-24 26 -50 -29 c-28 -15 -51 -31 -51 -35
0 -5 -6 -8 -14 -8 -7 0 -19 -7 -26 -15 -20 -24 -43 -17 -68 20 -23 33 -24 37
-14 132 13 119 32 233 41 253 9 18 60 48 82 49 10 1 34 -27 60 -70z m-3706
-154 c252 -118 249 -116 202 -171 l-23 -26 -87 40 c-48 23 -94 39 -102 35 -19
-7 -16 -43 5 -53 8 -4 33 -16 55 -26 74 -35 93 -51 88 -78 -3 -14 -13 -32 -24
-42 -17 -16 -26 -15 -59 5 -19 11 -121 61 -125 61 -2 0 -11 -7 -19 -16 -23
-22 -20 -53 7 -63 75 -29 157 -74 162 -91 7 -22 -18 -75 -39 -83 -8 -3 -20 1
-26 9 -7 8 -17 14 -22 14 -9 0 -148 64 -236 108 -53 27 -60 1 62 252 25 52 46
99 46 103 0 12 42 67 49 63 3 -2 42 -20 86 -41z m3315 -72 c28 -33 31 -43 26
-81 -5 -39 -4 -43 22 -54 50 -22 71 -57 72 -119 0 -48 -4 -59 -31 -86 -48 -50
-114 -77 -185 -78 -72 0 -96 16 -126 82 -14 32 -16 48 -8 62 16 31 12 59 -10
66 -29 9 -60 58 -60 95 0 43 49 104 103 129 26 12 66 20 104 20 59 1 63 0 93
-36z m-2795 -131 c80 -29 111 -49 134 -87 24 -41 27 -78 8 -94 -22 -18 -119
21 -130 52 -4 13 -19 30 -33 37 -21 12 -27 11 -42 -3 -16 -16 -15 -19 13 -42
17 -13 34 -24 39 -25 5 0 29 -16 53 -36 69 -57 88 -110 61 -171 -17 -37 -36
-54 -81 -75 -47 -22 -66 -22 -136 -1 -70 21 -132 61 -149 95 -16 33 -19 95 -5
109 11 11 116 -12 119 -27 1 -5 5 -21 8 -35 3 -14 17 -31 31 -37 33 -15 47
-15 69 1 26 19 13 38 -63 89 -82 55 -104 85 -104 141 0 50 23 88 68 111 40 20
79 19 140 -2z m2355 -62 c94 -103 110 -281 30 -348 -67 -56 -182 -70 -234 -28
-36 30 -30 47 25 74 39 19 45 20 66 7 30 -20 50 -19 63 4 13 26 13 68 -1 76
-6 4 -22 -3 -35 -16 -20 -19 -36 -24 -82 -24 -93 0 -142 53 -142 151 0 41 6
62 23 85 39 54 114 81 197 73 39 -4 51 -12 90 -54z m-1923 -55 c31 -8 71 -15
89 -15 33 0 87 -22 117 -48 28 -25 57 -101 57 -151 0 -89 -61 -210 -114 -226
-73 -22 -94 -24 -154 -10 -35 8 -80 15 -102 15 -21 0 -47 8 -59 18 -22 17 -22
18 -7 77 9 32 16 75 16 95 0 19 7 60 15 90 8 30 15 72 15 93 0 79 22 89 127
62z m1397 3 c12 -37 58 -292 71 -386 6 -49 4 -51 -69 -54 l-49 -3 -13 55 c-8
30 -18 86 -23 123 -5 38 -12 71 -15 74 -3 3 -23 -6 -44 -21 -53 -37 -69 -34
-84 15 -12 40 -11 42 18 62 45 33 94 86 94 103 0 29 106 59 114 32z m-626 -81
c8 -6 12 -25 10 -46 l-3 -36 -107 -3 c-86 -2 -107 -6 -112 -19 -12 -31 13 -42
107 -45 l92 -3 3 -41 c3 -37 0 -42 -22 -48 -14 -3 -50 -3 -80 0 -82 10 -106 1
-106 -40 0 -41 5 -43 125 -45 49 -1 92 -4 97 -7 10 -7 10 -65 -1 -82 -6 -10
-45 -13 -174 -11 -92 1 -172 6 -178 10 -9 5 -11 63 -10 215 1 115 5 212 8 217
7 11 335 -3 351 -16z"/>
<path d="M3924 8366 c-3 -7 -4 -35 -2 -62 3 -46 5 -49 28 -46 40 4 43 17 19
71 -24 52 -36 62 -45 37z"/>
<path d="M4220 7288 c-113 -11 -263 -36 -326 -54 -28 -8 -60 -14 -72 -14 -12
0 -39 -6 -59 -14 -21 -7 -65 -21 -98 -31 -33 -9 -78 -24 -100 -32 -22 -8 -58
-22 -80 -30 -81 -30 -343 -157 -400 -193 -16 -11 -39 -24 -50 -30 -204 -108
-540 -397 -712 -613 -32 -39 -61 -74 -64 -77 -12 -10 -162 -227 -172 -250 -4
-8 -21 -37 -37 -65 -52 -86 -170 -333 -170 -357 0 -7 -7 -22 -15 -32 -8 -11
-15 -28 -15 -38 0 -9 -6 -32 -14 -50 -8 -18 -22 -60 -31 -93 -9 -33 -22 -76
-28 -95 -6 -19 -14 -55 -18 -80 -4 -25 -12 -65 -18 -90 -35 -155 -56 -365 -56
-560 0 -140 18 -382 34 -450 5 -25 15 -70 21 -100 22 -114 30 -147 50 -215 12
-38 25 -83 30 -100 4 -16 18 -55 30 -85 12 -30 25 -67 30 -81 4 -14 12 -34 17
-45 6 -10 17 -35 26 -54 19 -43 85 -180 97 -200 80 -138 115 -196 122 -198 4
-2 8 -8 8 -13 0 -10 57 -90 157 -218 90 -116 247 -275 380 -385 136 -113 248
-196 262 -196 5 0 11 -4 13 -8 2 -7 60 -42 198 -122 20 -12 157 -78 200 -97
19 -9 44 -20 54 -26 11 -5 31 -13 45 -17 14 -5 51 -18 81 -30 30 -12 69 -26
85 -30 17 -5 62 -18 100 -30 39 -11 90 -25 115 -30 25 -5 65 -13 90 -19 354
-78 776 -76 1155 5 104 23 256 66 313 90 18 8 40 14 48 14 9 0 28 6 42 14 15
8 47 22 72 32 61 24 298 140 335 164 17 11 39 24 50 30 11 6 32 18 47 28 441
285 781 661 1004 1111 78 158 89 182 118 259 38 102 45 120 61 177 10 33 22
71 27 85 6 14 14 45 18 70 5 25 13 63 18 85 66 271 80 709 31 1005 -6 36 -14
88 -18 115 -37 237 -171 596 -328 875 -31 56 -176 271 -196 292 -7 7 -35 42
-62 78 -63 84 -311 331 -395 395 -36 28 -74 57 -85 67 -46 38 -185 130 -303
201 -26 15 -99 52 -162 83 -63 30 -123 59 -132 64 -75 42 -442 153 -563 170
-27 4 -75 12 -105 18 -159 30 -502 40 -700 20z m1740 -1200 c70 -16 139 -77
163 -146 15 -45 17 -99 17 -543 0 -438 -2 -499 -17 -541 -21 -58 -65 -109
-120 -137 -41 -20 -53 -21 -482 -21 -432 0 -441 0 -482 -22 -23 -11 -54 -39
-70 -61 -26 -36 -29 -47 -29 -122 0 -75 2 -85 30 -123 16 -23 49 -52 72 -64
43 -22 48 -23 492 -26 l449 -3 49 -32 c36 -24 56 -46 76 -87 l27 -55 3 -505
c2 -455 1 -509 -14 -550 -23 -59 -57 -104 -102 -132 l-37 -23 -543 -3 c-342
-2 -556 1 -580 7 -54 15 -106 63 -136 126 l-26 56 0 456 c0 453 0 456 -22 492
-49 79 -91 101 -197 101 -74 0 -82 -2 -122 -32 -90 -70 -83 -28 -89 -566 -5
-475 -5 -477 -28 -522 -15 -29 -41 -58 -70 -78 l-47 -32 -564 0 c-517 0 -565
1 -594 18 -44 24 -88 75 -104 119 -17 52 -19 2855 -2 2914 14 46 69 106 114
125 28 11 131 14 573 14 297 0 553 -3 570 -6 41 -8 105 -64 128 -111 18 -35
19 -75 24 -563 l5 -526 33 -41 c53 -68 87 -83 179 -83 73 0 84 3 121 30 22 16
52 46 66 67 l26 38 0 500 c0 451 2 505 17 549 23 62 97 131 156 144 65 15
1024 15 1087 0z"/>
<path d="M1740 7287 c0 -22 39 -94 54 -100 13 -5 56 30 56 46 0 4 -10 12 -22
17 -13 6 -38 19 -55 30 -24 14 -33 16 -33 7z"/>
<path d="M1324 6915 c-39 -42 -39 -50 -1 -79 l28 -20 24 29 c30 38 32 80 4 95
-17 10 -25 6 -55 -25z"/>
<path d="M7464 6965 c-10 -8 -27 -15 -36 -15 -10 0 -18 -6 -18 -13 0 -18 32
-47 51 -47 14 1 59 62 59 81 0 14 -34 11 -56 -6z"/>
<path d="M1045 6448 c-60 -35 -59 -76 2 -108 26 -14 68 -37 94 -52 25 -16 51
-28 57 -28 14 0 42 57 42 86 0 27 -48 70 -108 95 -50 22 -60 23 -87 7z"/>
<path d="M8210 5286 c0 -47 14 -52 66 -25 52 28 56 44 13 53 -67 13 -79 9 -79
-28z"/>
<path d="M2392 1341 c-6 -3 -36 -44 -66 -89 l-55 -81 26 -21 c42 -33 77 -26
116 23 55 66 59 139 9 166 -10 5 -23 6 -30 2z"/>
<path d="M6506 1170 c-4 -28 -4 -55 -1 -60 3 -5 21 1 39 13 33 22 33 23 18 52
-14 29 -30 45 -43 45 -4 0 -9 -23 -13 -50z"/>
<path d="M6030 1050 c-15 -29 -3 -59 26 -66 30 -8 54 11 54 40 0 46 -59 64
-80 26z"/>
<path d="M6107 902 c-48 -53 27 -136 77 -86 23 22 20 51 -9 79 -29 30 -46 31
-68 7z"/>
<path d="M5577 883 c-15 -14 -7 -80 11 -96 28 -25 66 -21 82 8 12 22 11 30 -3
60 -14 30 -22 35 -50 35 -19 0 -37 -3 -40 -7z"/>
<path d="M3846 742 c-3 -10 -10 -53 -16 -95 -5 -43 -13 -83 -16 -89 -18 -28
74 -39 101 -11 25 24 35 58 35 118 0 48 -3 56 -29 74 -36 26 -68 27 -75 3z"/>
</g>
</svg>
